<svg width="142" height="50" viewBox="0 0 142 50" fill="none" xmlns="http://www.w3.org/2000/svg">
<path d="M32.3648 50V11.9597H40.1091V16.6066H40.4595C40.8037 15.8622 41.3015 15.1057 41.953 14.3372C42.6168 13.5567 43.4773 12.9083 44.5345 12.3919C45.604 11.8636 46.9316 11.5994 48.5173 11.5994C50.5825 11.5994 52.4879 12.1278 54.2334 13.1844C55.979 14.2291 57.3742 15.8081 58.4191 17.9215C59.464 20.0228 59.9864 22.6585 59.9864 25.8285C59.9864 28.9145 59.4763 31.5202 58.456 33.6455C57.448 35.7589 56.0712 37.3619 54.3256 38.4546C52.5924 39.5353 50.6501 40.0756 48.4989 40.0756C46.9746 40.0756 45.6777 39.8295 44.6082 39.3372C43.5511 38.8449 42.6844 38.2265 42.0083 37.482C41.3322 36.7255 40.8159 35.963 40.4595 35.1945H40.2197V50H32.3648ZM40.0538 25.7925C40.0538 27.4376 40.2874 28.8725 40.7545 30.0973C41.2216 31.322 41.8977 32.2767 42.7828 32.9611C43.6679 33.6335 44.7435 33.9697 46.0096 33.9697C47.2881 33.9697 48.3698 33.6275 49.2549 32.9431C50.14 32.2466 50.8099 31.286 51.2647 30.0612C51.7319 28.8244 51.9654 27.4015 51.9654 25.7925C51.9654 24.1955 51.738 22.7906 51.2832 21.5778C50.8284 20.365 50.1584 19.4164 49.2733 18.732C48.3883 18.0475 47.3003 17.7053 46.0096 17.7053C44.7312 17.7053 43.6494 18.0355 42.7643 18.696C41.8916 19.3564 41.2216 20.293 40.7545 21.5058C40.2874 22.7185 40.0538 24.1475 40.0538 25.7925Z" fill="black"/>
<path fill-rule="evenodd" clip-rule="evenodd" d="M80.2878 17.7233V11.9597H74.9589V5.33141H67.1039V11.9597H63.2317V17.7233H67.1039V32.1326C67.0916 33.9457 67.4788 35.4467 68.2656 36.6354C69.0523 37.8242 70.1525 38.7008 71.5661 39.2651C72.9921 39.8295 74.6516 40.0756 76.5447 40.0036C77.565 39.9676 78.4316 39.8655 79.1446 39.6974C79.8576 39.5413 80.4107 39.4032 80.8041 39.2831L79.5687 33.5735C79.372 33.6095 79.0893 33.6635 78.7205 33.7356C78.3517 33.7956 77.9829 33.8256 77.6141 33.8256C77.0856 33.8256 76.6184 33.7476 76.2128 33.5915C75.8194 33.4354 75.5121 33.1652 75.2908 32.781C75.0696 32.3847 74.9589 31.8324 74.9589 31.1239V17.7233H80.2878Z" fill="black"/>
<path fill-rule="evenodd" clip-rule="evenodd" d="M107.928 4.75504C107.928 7.38118 105.749 9.51009 103.06 9.51009C100.372 9.51009 98.1922 7.38118 98.1922 4.75504C98.1922 2.1289 100.372 0 103.06 0C105.749 0 107.928 2.1289 107.928 4.75504Z" fill="#FF6645"/>
<path d="M99.5521 39.6254V11.9597H107.407V39.6254H99.5521Z" fill="black"/>
<path d="M85.4047 39.6254V11.9597H93.2598V39.6254H85.4047Z" fill="black"/>
<path fill-rule="evenodd" clip-rule="evenodd" d="M94.1356 4.75504C94.1356 7.38118 91.9562 9.51009 89.2677 9.51009C86.5793 9.51009 84.3997 7.38118 84.3997 4.75504C84.3997 2.1289 86.5793 0 89.2677 0C91.9562 0 94.1356 2.1289 94.1356 4.75504Z" fill="#FF6645"/>
<path d="M124.802 21.1816V39.6254H120.875V21.1816H124.802Z" fill="#FF6645"/>
<path d="M134.347 39.8955C132.915 39.8955 131.676 39.5983 130.631 39.004C129.592 38.4036 128.79 37.569 128.225 36.5004C127.659 35.4257 127.377 34.1799 127.377 32.763C127.377 31.3341 127.659 30.0853 128.225 29.0166C128.79 27.9419 129.592 27.1073 130.631 26.513C131.676 25.9126 132.915 25.6124 134.347 25.6124C135.779 25.6124 137.014 25.9126 138.053 26.513C139.098 27.1073 139.903 27.9419 140.468 29.0166C141.034 30.0853 141.317 31.3341 141.317 32.763C141.317 34.1799 141.034 35.4257 140.468 36.5004C139.903 37.569 139.098 38.4036 138.053 39.004C137.014 39.5983 135.779 39.8955 134.347 39.8955ZM134.365 36.9236C135.017 36.9236 135.561 36.7435 135.997 36.3833C136.433 36.0171 136.762 35.5187 136.983 34.8883C137.211 34.2579 137.325 33.5405 137.325 32.7359C137.325 31.9314 137.211 31.214 136.983 30.5836C136.762 29.9532 136.433 29.4548 135.997 29.0886C135.561 28.7224 135.017 28.5393 134.365 28.5393C133.707 28.5393 133.154 28.7224 132.706 29.0886C132.263 29.4548 131.928 29.9532 131.701 30.5836C131.479 31.214 131.369 31.9314 131.369 32.7359C131.369 33.5405 131.479 34.2579 131.701 34.8883C131.928 35.5187 132.263 36.0171 132.706 36.3833C133.154 36.7435 133.707 36.9236 134.365 36.9236Z" fill="#FF6645"/>
<path fill-rule="evenodd" clip-rule="evenodd" d="M118.475 28.6743V25.7925H115.654V24.8649C115.654 24.3966 115.768 24.0334 115.995 23.7752C116.223 23.511 116.625 23.379 117.203 23.379C117.437 23.379 117.664 23.4 117.885 23.442C118.113 23.484 118.303 23.5291 118.457 23.5771L119.158 20.6952C118.912 20.6232 118.537 20.5421 118.033 20.4521C117.535 20.362 116.985 20.317 116.382 20.317C115.491 20.317 114.695 20.4821 113.995 20.8123C113.294 21.1425 112.741 21.6378 112.335 22.2983C111.936 22.9587 111.736 23.7902 111.736 24.7929V25.7925H109.735V28.6743H111.736V39.6254H115.654V28.6743H118.475Z" fill="#FF6645"/>
<path fill-rule="evenodd" clip-rule="evenodd" d="M6.82562 37.482C8.91538 38.6708 11.3924 39.2651 14.2566 39.2651L14.2934 33.3213C12.9781 33.3213 11.8718 32.9611 10.9744 32.2406C10.0893 31.5082 9.41938 30.5115 8.96455 29.2507C8.52201 27.9899 8.30074 26.555 8.30074 24.946C8.30074 23.3369 8.52201 21.902 8.96455 20.6412C9.41938 19.3804 10.0893 18.3838 10.9744 17.6513C11.8718 16.9188 12.9781 16.5526 14.2934 16.5526C14.4657 16.5526 14.6342 16.559 14.799 16.5718C15.0272 13.5806 15.1961 10.6988 14.2566 10.6988C11.3924 10.6988 8.91538 11.2992 6.82562 12.5C4.74815 13.6888 3.14396 15.3578 2.01303 17.5072C0.882099 19.6446 0.316635 22.1422 0.316635 25C0.316635 27.8338 0.882099 30.3254 2.01303 32.4748C3.14396 34.6122 4.74815 36.2812 6.82562 37.482Z" fill="black"/>
<path d="M28.1965 25C28.1965 22.1422 27.631 19.6446 26.5001 17.5072C25.7583 16.0974 24.8103 14.8943 23.656 13.8978L24.9842 12.5637L17.0835 11.8753L16.7769 17.124L16.5799 20.4972L18.438 18.8636L18.5683 18.7491C18.9582 19.2946 19.2789 19.9253 19.5301 20.6412C19.985 21.902 20.2124 23.3369 20.2124 24.946C20.2124 26.555 19.985 27.9899 19.5301 29.2507C19.0876 30.5115 18.4299 31.5082 17.5571 32.2406C16.6844 32.9611 15.5965 33.3213 14.2934 33.3213L14.2566 39.2651C17.1208 39.2651 19.5916 38.6708 21.6691 37.482C23.7588 36.2812 25.3692 34.6122 26.5001 32.4748C27.631 30.3254 28.1965 27.8338 28.1965 25Z" fill="#FF6645"/>
</svg>
