<svg width="141" height="50" viewBox="0 0 141 50" fill="none" xmlns="http://www.w3.org/2000/svg">
<path d="M32.0481 50V11.9597H39.7925V16.6066H40.1428C40.487 15.8621 40.9849 15.1057 41.6364 14.3372C42.3002 13.5567 43.1607 12.9083 44.2179 12.3919C45.2873 11.8636 46.6149 11.5994 48.2007 11.5994C50.2659 11.5994 52.1712 12.1278 53.9168 13.1844C55.6624 14.2291 57.0576 15.8081 58.1025 17.9215C59.1473 20.0228 59.6698 22.6585 59.6698 25.8285C59.6698 28.9145 59.1596 31.5202 58.1393 33.6455C57.1313 35.7589 55.7546 37.3619 54.009 38.4546C52.2757 39.5353 50.3335 40.0756 48.1823 40.0756C46.658 40.0756 45.3611 39.8295 44.2916 39.3372C43.2344 38.8449 42.3678 38.2265 41.6917 37.482C41.0156 36.7255 40.4993 35.963 40.1428 35.1945H39.9031V50H32.0481ZM39.7372 25.7925C39.7372 27.4376 39.9707 28.8725 40.4379 30.0973C40.905 31.322 41.5811 32.2767 42.4661 32.9611C43.3512 33.6335 44.4268 33.9697 45.693 33.9697C46.9714 33.9697 48.0532 33.6275 48.9382 32.9431C49.8233 32.2466 50.4933 31.286 50.9481 30.0612C51.4152 28.8244 51.6488 27.4015 51.6488 25.7925C51.6488 24.1955 51.4214 22.7906 50.9665 21.5778C50.5117 20.365 49.8418 19.4164 48.9567 18.732C48.0716 18.0475 46.9837 17.7053 45.693 17.7053C44.4145 17.7053 43.3328 18.0355 42.4477 18.696C41.5749 19.3564 40.905 20.293 40.4379 21.5058C39.9707 22.7185 39.7372 24.1475 39.7372 25.7925Z" fill="#FF6645"/>
<path fill-rule="evenodd" clip-rule="evenodd" d="M79.9712 17.7233V11.9597H74.6423V5.33141H66.7873V11.9597H62.915V17.7233H66.7873V32.1326C66.775 33.9457 67.1622 35.4467 67.9489 36.6354C68.7356 37.8242 69.8358 38.7008 71.2495 39.2651C72.6754 39.8295 74.335 40.0756 76.228 40.0036C77.2483 39.9676 78.115 39.8655 78.828 39.6974C79.5409 39.5413 80.0941 39.4032 80.4875 39.2831L79.2521 33.5735C79.0554 33.6095 78.7726 33.6635 78.4039 33.7356C78.0351 33.7956 77.6663 33.8256 77.2975 33.8256C76.7689 33.8256 76.3018 33.7476 75.8961 33.5915C75.5028 33.4354 75.1954 33.1652 74.9742 32.781C74.7529 32.3847 74.6423 31.8324 74.6423 31.1239V17.7233H79.9712Z" fill="#FF6645"/>
<path fill-rule="evenodd" clip-rule="evenodd" d="M107.611 4.75504C107.611 7.38118 105.432 9.51009 102.744 9.51009C100.055 9.51009 97.8756 7.38118 97.8756 4.75504C97.8756 2.1289 100.055 0 102.744 0C105.432 0 107.611 2.1289 107.611 4.75504Z" fill="#FF6645"/>
<path d="M99.2355 39.6254V11.9597H107.091V39.6254H99.2355Z" fill="#FF6645"/>
<path d="M85.088 39.6254V11.9597H92.9431V39.6254H85.088Z" fill="#FF6645"/>
<path fill-rule="evenodd" clip-rule="evenodd" d="M93.819 4.75504C93.819 7.38118 91.6396 9.51009 88.9511 9.51009C86.2626 9.51009 84.0831 7.38118 84.0831 4.75504C84.0831 2.1289 86.2626 0 88.9511 0C91.6396 0 93.819 2.1289 93.819 4.75504Z" fill="#FF6645"/>
<path d="M124.486 21.1816V39.6254H120.558V21.1816H124.486Z" fill="#FF6645"/>
<path d="M134.03 39.8955C132.598 39.8955 131.359 39.5983 130.315 39.004C129.276 38.4036 128.474 37.569 127.908 36.5004C127.343 35.4257 127.06 34.1799 127.06 32.763C127.06 31.334 127.343 30.0853 127.908 29.0166C128.474 27.9419 129.276 27.1073 130.315 26.513C131.359 25.9126 132.598 25.6124 134.03 25.6124C135.462 25.6124 136.698 25.9126 137.736 26.513C138.781 27.1073 139.586 27.9419 140.152 29.0166C140.717 30.0853 141 31.334 141 32.763C141 34.1799 140.717 35.4257 140.152 36.5004C139.586 37.569 138.781 38.4036 137.736 39.004C136.698 39.5983 135.462 39.8955 134.03 39.8955ZM134.048 36.9236C134.7 36.9236 135.244 36.7435 135.68 36.3833C136.117 36.017 136.446 35.5187 136.667 34.8883C136.894 34.2579 137.008 33.5405 137.008 32.7359C137.008 31.9314 136.894 31.214 136.667 30.5836C136.446 29.9532 136.117 29.4548 135.68 29.0886C135.244 28.7224 134.7 28.5393 134.048 28.5393C133.391 28.5393 132.838 28.7224 132.389 29.0886C131.946 29.4548 131.611 29.9532 131.384 30.5836C131.163 31.214 131.052 31.9314 131.052 32.7359C131.052 33.5405 131.163 34.2579 131.384 34.8883C131.611 35.5187 131.946 36.017 132.389 36.3833C132.838 36.7435 133.391 36.9236 134.048 36.9236Z" fill="#FF6645"/>
<path fill-rule="evenodd" clip-rule="evenodd" d="M118.159 28.6743V25.7925H115.337V24.8649C115.337 24.3966 115.451 24.0334 115.679 23.7752C115.906 23.511 116.309 23.379 116.886 23.379C117.12 23.379 117.347 23.4 117.569 23.442C117.796 23.484 117.987 23.5291 118.14 23.5771L118.841 20.6952C118.595 20.6232 118.22 20.5421 117.716 20.4521C117.218 20.362 116.668 20.317 116.066 20.317C115.175 20.317 114.379 20.4821 113.678 20.8123C112.977 21.1425 112.424 21.6378 112.018 22.2983C111.619 22.9587 111.419 23.7902 111.419 24.7929V25.7925H109.419V28.6743H111.419V39.6254H115.337V28.6743H118.159Z" fill="#FF6645"/>
<path fill-rule="evenodd" clip-rule="evenodd" d="M6.50899 37.482C8.59874 38.6707 11.0757 39.2651 13.9399 39.2651L13.9768 33.3213C12.6615 33.3213 11.5551 32.9611 10.6578 32.2406C9.7727 31.5082 9.10275 30.5115 8.64792 29.2507C8.20538 27.9899 7.98411 26.555 7.98411 24.946C7.98411 23.3369 8.20538 21.902 8.64792 20.6412C9.10275 19.3804 9.7727 18.3838 10.6578 17.6513C11.5551 16.9188 12.6615 16.5526 13.9768 16.5526C14.1491 16.5526 14.3176 16.559 14.4824 16.5718C14.7106 13.5806 14.8794 10.6988 13.9399 10.6988C11.0757 10.6988 8.59874 11.2992 6.50899 12.5C4.43152 13.6888 2.82732 15.3578 1.69639 17.5072C0.565464 19.6446 0 22.1422 0 25C0 27.8338 0.565464 30.3254 1.69639 32.4748C2.82732 34.6122 4.43152 36.2812 6.50899 37.482Z" fill="#FF6645"/>
<path d="M27.8798 25C27.8798 22.1422 27.3144 19.6446 26.1835 17.5072C25.4417 16.0974 24.4937 14.8943 23.3394 13.8978L24.6675 12.5637L16.7669 11.8753L16.4603 17.124L16.2632 20.4972L18.1214 18.8636L18.2516 18.7491C18.6416 19.2946 18.9622 19.9253 19.2135 20.6412C19.6683 21.902 19.8957 23.3369 19.8957 24.946C19.8957 26.555 19.6683 27.9899 19.2135 29.2507C18.771 30.5115 18.1133 31.5082 17.2405 32.2406C16.3677 32.9611 15.2798 33.3213 13.9768 33.3213L13.9399 39.2651C16.8041 39.2651 19.275 38.6707 21.3524 37.482C23.4422 36.2812 25.0525 34.6122 26.1835 32.4748C27.3144 30.3254 27.8798 27.8338 27.8798 25Z" fill="#FF6645"/>
</svg>
