<svg width="48" height="48" viewBox="0 0 48 48" fill="none" xmlns="http://www.w3.org/2000/svg">
<path fill-rule="evenodd" clip-rule="evenodd" d="M11.2063 45.0038C14.8042 47.0013 19.0688 48 24 48L24.0635 38.0126C21.7989 38.0126 19.8942 37.4073 18.3492 36.1967C16.8254 34.966 15.672 33.2913 14.8889 31.1728C14.127 29.0542 13.746 26.6431 13.746 23.9395C13.746 21.2358 14.127 18.8247 14.8889 16.7062C15.672 14.5876 16.8254 12.913 18.3492 11.6822C19.8942 10.4514 21.7989 9.83606 24.0635 9.83606C24.3601 9.83606 24.6503 9.84682 24.9339 9.86834C25.3268 4.84214 25.6175 0 24 0C19.0688 0 14.8042 1.00883 11.2063 3.02648C7.62963 5.02396 4.86772 7.8285 2.92063 11.4401C0.973545 15.0315 0 19.2282 0 24.0303C0 28.7919 0.973545 32.9786 2.92063 36.5902C4.86772 40.1816 7.62963 42.9861 11.2063 45.0038Z" fill="black"/>
<path d="M48 24.0303C48 19.2282 47.0265 15.0315 45.0794 11.4401C43.8023 9.07125 42.1701 7.0496 40.1828 5.37516L42.4694 3.13345L28.8671 1.97682L28.3392 10.7962L28 16.4641L31.1991 13.7193L31.4234 13.5269C32.0948 14.4435 32.6468 15.5033 33.0794 16.7062C33.8624 18.8247 34.254 21.2358 34.254 23.9395C34.254 26.6431 33.8624 29.0542 33.0794 31.1728C32.3175 33.2913 31.1852 34.966 29.6825 36.1967C28.1799 37.4073 26.3069 38.0126 24.0635 38.0126L24 48C28.9312 48 33.1852 47.0013 36.7619 45.0038C40.3598 42.9861 43.1323 40.1816 45.0794 36.5902C47.0265 32.9786 48 28.7919 48 24.0303Z" fill="#FF6645"/>
</svg>
