<svg xmlns="http://www.w3.org/2000/svg" xmlns:xlink="http://www.w3.org/1999/xlink" width="1920" zoomAndPan="magnify" viewBox="0 0 1440 809.999993" height="1080" preserveAspectRatio="xMidYMid meet" version="1.0"><defs><g/><clipPath id="9325c30735"><path d="M 81 81 L 1359 81 L 1359 729 L 81 729 Z M 81 81 " clip-rule="nonzero"/></clipPath><clipPath id="48daa67384"><path d="M 117 81 L 1323 81 C 1332.546875 81 1341.703125 84.792969 1348.457031 91.542969 C 1355.207031 98.296875 1359 107.453125 1359 117 L 1359 693 C 1359 702.546875 1355.207031 711.703125 1348.457031 718.457031 C 1341.703125 725.207031 1332.546875 729 1323 729 L 117 729 C 107.453125 729 98.296875 725.207031 91.542969 718.457031 C 84.792969 711.703125 81 702.546875 81 693 L 81 117 C 81 107.453125 84.792969 98.296875 91.542969 91.542969 C 98.296875 84.792969 107.453125 81 117 81 Z M 117 81 " clip-rule="nonzero"/></clipPath><clipPath id="0a16920987"><path d="M 458 313 L 647 313 L 647 575.304688 L 458 575.304688 Z M 458 313 " clip-rule="nonzero"/></clipPath><clipPath id="e52d8a21d4"><path d="M 906 234.804688 L 974 234.804688 L 974 300 L 906 300 Z M 906 234.804688 " clip-rule="nonzero"/></clipPath><clipPath id="a5e1680dc1"><path d="M 812 234.804688 L 880 234.804688 L 880 300 L 812 300 Z M 812 234.804688 " clip-rule="nonzero"/></clipPath></defs><rect x="-144" width="1728" fill="#ffffff" y="-80.999999" height="971.999992" fill-opacity="1"/><g clip-path="url(#9325c30735)"><g clip-path="url(#48daa67384)"><path fill="#a2d9e5" d="M 81 81 L 1359.28125 81 L 1359.28125 729 L 81 729 Z M 81 81 " fill-opacity="1" fill-rule="nonzero"/></g></g><g clip-path="url(#0a16920987)"><path fill="#000000" d="M 458.078125 575.304688 L 458.078125 316.25 L 510.855469 316.25 L 510.855469 347.898438 L 513.242188 347.898438 C 515.585938 342.828125 518.980469 337.675781 523.421875 332.441406 C 527.945312 327.128906 533.808594 322.710938 541.011719 319.195312 C 548.300781 315.597656 557.347656 313.796875 568.152344 313.796875 C 582.226562 313.796875 595.210938 317.394531 607.109375 324.59375 C 619.003906 331.707031 628.511719 342.460938 635.632812 356.851562 C 642.75 371.160156 646.3125 389.109375 646.3125 410.699219 C 646.3125 431.714844 642.835938 449.457031 635.882812 463.933594 C 629.011719 478.324219 619.628906 489.242188 607.734375 496.683594 C 595.925781 504.042969 582.6875 507.722656 568.027344 507.722656 C 557.640625 507.722656 548.804688 506.046875 541.515625 502.691406 C 534.3125 499.339844 528.40625 495.128906 523.796875 490.058594 C 519.191406 484.90625 515.671875 479.714844 513.242188 474.480469 L 511.609375 474.480469 L 511.609375 575.304688 Z M 510.476562 410.453125 C 510.476562 421.65625 512.070312 431.429688 515.253906 439.769531 C 518.4375 448.109375 523.042969 454.609375 529.074219 459.269531 C 535.105469 463.851562 542.4375 466.140625 551.066406 466.140625 C 559.777344 466.140625 567.148438 463.808594 573.179688 459.148438 C 579.210938 454.40625 583.777344 447.863281 586.875 439.523438 C 590.058594 431.101562 591.652344 421.410156 591.652344 410.453125 C 591.652344 399.578125 590.101562 390.011719 587.003906 381.75 C 583.902344 373.492188 579.335938 367.03125 573.304688 362.371094 C 567.273438 357.710938 559.859375 355.378906 551.066406 355.378906 C 542.351562 355.378906 534.980469 357.628906 528.949219 362.125 C 523 366.625 518.4375 373 515.253906 381.261719 C 512.070312 389.519531 510.476562 399.25 510.476562 410.453125 Z M 510.476562 410.453125 " fill-opacity="1" fill-rule="nonzero"/></g><path fill="#000000" d="M 784.660156 355.503906 L 784.660156 316.25 L 748.34375 316.25 L 748.34375 271.113281 L 694.816406 271.113281 L 694.816406 316.25 L 668.425781 316.25 L 668.425781 355.503906 L 694.816406 355.503906 L 694.816406 453.628906 C 694.734375 465.976562 697.371094 476.199219 702.730469 484.292969 C 708.09375 492.390625 715.59375 498.359375 725.222656 502.203125 C 734.941406 506.046875 746.25 507.722656 759.152344 507.230469 C 766.105469 506.984375 772.011719 506.289062 776.867188 505.144531 C 781.726562 504.082031 785.496094 503.140625 788.179688 502.324219 L 779.757812 463.441406 C 778.417969 463.6875 776.492188 464.054688 773.976562 464.546875 C 771.464844 464.953125 768.949219 465.160156 766.4375 465.160156 C 762.835938 465.160156 759.652344 464.628906 756.890625 463.5625 C 754.207031 462.5 752.113281 460.660156 750.605469 458.042969 C 749.097656 455.347656 748.34375 451.585938 748.34375 446.761719 L 748.34375 355.503906 Z M 784.660156 355.503906 " fill-opacity="1" fill-rule="evenodd"/><g clip-path="url(#e52d8a21d4)"><path fill="#ff6645" d="M 973.019531 267.1875 C 973.019531 285.070312 958.167969 299.570312 939.84375 299.570312 C 921.523438 299.570312 906.671875 285.070312 906.671875 267.1875 C 906.671875 249.304688 921.523438 234.804688 939.84375 234.804688 C 958.167969 234.804688 973.019531 249.304688 973.019531 267.1875 Z M 973.019531 267.1875 " fill-opacity="1" fill-rule="evenodd"/></g><path fill="#000000" d="M 915.941406 316.25 L 969.46875 316.25 L 969.46875 504.65625 L 915.941406 504.65625 Z M 915.941406 316.25 " fill-opacity="1" fill-rule="nonzero"/><path fill="#000000" d="M 819.527344 316.25 L 873.058594 316.25 L 873.058594 504.65625 L 819.527344 504.65625 Z M 819.527344 316.25 " fill-opacity="1" fill-rule="nonzero"/><g clip-path="url(#a5e1680dc1)"><path fill="#ff6645" d="M 879.027344 267.1875 C 879.027344 285.070312 864.175781 299.570312 845.855469 299.570312 C 827.535156 299.570312 812.683594 285.070312 812.683594 267.1875 C 812.683594 249.304688 827.535156 234.804688 845.855469 234.804688 C 864.175781 234.804688 879.027344 249.304688 879.027344 267.1875 Z M 879.027344 267.1875 " fill-opacity="1" fill-rule="evenodd"/></g><path fill="#ff6645" d="M 1061.246094 379.050781 L 1088.007812 379.050781 L 1088.007812 504.65625 L 1061.246094 504.65625 Z M 1061.246094 379.050781 " fill-opacity="1" fill-rule="nonzero"/><path fill="#ff6645" d="M 1153.050781 506.496094 C 1143.292969 506.496094 1134.851562 504.472656 1127.734375 500.421875 C 1120.65625 496.335938 1115.1875 490.652344 1111.335938 483.375 C 1107.484375 476.054688 1105.554688 467.570312 1105.554688 457.921875 C 1105.554688 448.191406 1107.484375 439.6875 1111.335938 432.410156 C 1115.1875 425.089844 1120.65625 419.40625 1127.734375 415.359375 C 1134.851562 411.269531 1143.292969 409.226562 1153.050781 409.226562 C 1162.8125 409.226562 1171.230469 411.269531 1178.3125 415.359375 C 1185.429688 419.40625 1190.917969 425.089844 1194.769531 432.410156 C 1198.625 439.6875 1200.550781 448.191406 1200.550781 457.921875 C 1200.550781 467.570312 1198.625 476.054688 1194.769531 483.375 C 1190.917969 490.652344 1185.429688 496.335938 1178.3125 500.421875 C 1171.230469 504.472656 1162.8125 506.496094 1153.050781 506.496094 Z M 1153.175781 486.257812 C 1157.617188 486.257812 1161.324219 485.03125 1164.300781 482.578125 C 1167.273438 480.082031 1169.515625 476.6875 1171.023438 472.394531 C 1172.574219 468.101562 1173.347656 463.214844 1173.347656 457.738281 C 1173.347656 452.257812 1172.574219 447.375 1171.023438 443.082031 C 1169.515625 438.789062 1167.273438 435.394531 1164.300781 432.898438 C 1161.324219 430.40625 1157.617188 429.160156 1153.175781 429.160156 C 1148.699219 429.160156 1144.925781 430.40625 1141.871094 432.898438 C 1138.855469 435.394531 1136.570312 438.789062 1135.023438 443.082031 C 1133.515625 447.375 1132.761719 452.257812 1132.761719 457.738281 C 1132.761719 463.214844 1133.515625 468.101562 1135.023438 472.394531 C 1136.570312 476.6875 1138.855469 480.082031 1141.871094 482.578125 C 1144.925781 485.03125 1148.699219 486.257812 1153.175781 486.257812 Z M 1153.175781 486.257812 " fill-opacity="1" fill-rule="nonzero"/><path fill="#ff6645" d="M 1044.894531 430.078125 L 1044.894531 410.453125 L 1025.667969 410.453125 L 1025.667969 404.136719 C 1025.667969 400.945312 1026.445312 398.472656 1027.996094 396.714844 C 1029.542969 394.917969 1032.285156 394.015625 1036.222656 394.015625 C 1037.816406 394.015625 1039.367188 394.160156 1040.871094 394.445312 C 1042.425781 394.730469 1043.722656 395.039062 1044.769531 395.367188 L 1049.542969 375.742188 C 1047.867188 375.25 1045.3125 374.699219 1041.878906 374.085938 C 1038.484375 373.472656 1034.738281 373.164062 1030.632812 373.164062 C 1024.5625 373.164062 1019.136719 374.289062 1014.363281 376.539062 C 1009.585938 378.785156 1005.816406 382.160156 1003.050781 386.65625 C 1000.328125 391.15625 998.96875 396.816406 998.96875 403.644531 L 998.96875 410.453125 L 985.335938 410.453125 L 985.335938 430.078125 L 998.96875 430.078125 L 998.96875 504.65625 L 1025.667969 504.65625 L 1025.667969 430.078125 Z M 1044.894531 430.078125 " fill-opacity="1" fill-rule="evenodd"/><path fill="#000000" d="M 284.039062 490.058594 C 298.28125 498.152344 315.160156 502.203125 334.679688 502.203125 L 334.929688 461.722656 C 325.964844 461.722656 318.425781 459.269531 312.3125 454.363281 C 306.28125 449.375 301.714844 442.589844 298.613281 434.003906 C 295.597656 425.417969 294.089844 415.644531 294.089844 404.6875 C 294.089844 393.730469 295.597656 383.957031 298.613281 375.371094 C 301.714844 366.785156 306.28125 360 312.3125 355.011719 C 318.425781 350.023438 325.964844 347.53125 334.929688 347.53125 C 336.105469 347.53125 337.253906 347.574219 338.375 347.660156 C 339.929688 327.289062 341.082031 307.664062 334.679688 307.664062 C 315.160156 307.664062 298.28125 311.753906 284.039062 319.929688 C 269.882812 328.027344 258.949219 339.394531 251.242188 354.03125 C 243.535156 368.585938 239.683594 385.59375 239.683594 405.054688 C 239.683594 424.355469 243.535156 441.320312 251.242188 455.960938 C 258.949219 470.515625 269.882812 481.882812 284.039062 490.058594 Z M 284.039062 490.058594 " fill-opacity="1" fill-rule="evenodd"/><path fill="#ff6645" d="M 429.675781 405.054688 C 429.675781 385.59375 425.820312 368.585938 418.113281 354.03125 C 413.058594 344.429688 406.597656 336.234375 398.734375 329.449219 L 407.785156 320.363281 L 353.941406 315.675781 L 351.851562 351.421875 L 350.511719 374.390625 L 363.171875 363.265625 L 364.0625 362.488281 C 366.71875 366.203125 368.902344 370.496094 370.617188 375.371094 C 373.714844 383.957031 375.265625 393.730469 375.265625 404.6875 C 375.265625 415.644531 373.714844 425.417969 370.617188 434.003906 C 367.601562 442.589844 363.117188 449.375 357.171875 454.363281 C 351.222656 459.269531 343.808594 461.722656 334.929688 461.722656 L 334.679688 502.203125 C 354.195312 502.203125 371.035156 498.152344 385.191406 490.058594 C 399.433594 481.882812 410.40625 470.515625 418.113281 455.960938 C 425.820312 441.320312 429.675781 424.355469 429.675781 405.054688 Z M 429.675781 405.054688 " fill-opacity="1" fill-rule="nonzero"/><g fill="#000000" fill-opacity="1"><g transform="translate(1053.63241, 565.443808)"><g><path d="M 11.824219 0.410156 C 10.285156 0.410156 8.867188 0.144531 7.566406 -0.382812 C 6.269531 -0.910156 5.140625 -1.65625 4.183594 -2.617188 C 3.226562 -3.578125 2.484375 -4.710938 1.953125 -6.007812 C 1.425781 -7.308594 1.160156 -8.722656 1.160156 -10.253906 C 1.160156 -11.792969 1.425781 -13.210938 1.953125 -14.511719 C 2.484375 -15.808594 3.226562 -16.9375 4.183594 -17.894531 C 5.140625 -18.851562 6.269531 -19.59375 7.566406 -20.125 C 8.867188 -20.652344 10.285156 -20.917969 11.824219 -20.917969 C 13.367188 -20.917969 14.78125 -20.652344 16.078125 -20.125 C 17.371094 -19.59375 18.496094 -18.851562 19.453125 -17.894531 C 20.410156 -16.9375 21.152344 -15.808594 21.683594 -14.511719 C 22.210938 -13.210938 22.472656 -11.792969 22.472656 -10.253906 C 22.472656 -8.722656 22.210938 -7.308594 21.683594 -6.007812 C 21.152344 -4.710938 20.410156 -3.578125 19.453125 -2.617188 C 18.496094 -1.65625 17.371094 -0.910156 16.078125 -0.382812 C 14.78125 0.144531 13.367188 0.410156 11.824219 0.410156 Z M 11.824219 -1.722656 C 13 -1.722656 14.085938 -1.9375 15.085938 -2.363281 C 16.082031 -2.792969 16.953125 -3.394531 17.691406 -4.164062 C 18.429688 -4.933594 19 -5.835938 19.40625 -6.871094 C 19.8125 -7.902344 20.015625 -9.03125 20.015625 -10.253906 C 20.015625 -11.472656 19.8125 -12.605469 19.40625 -13.644531 C 19 -14.683594 18.429688 -15.585938 17.691406 -16.355469 C 16.953125 -17.128906 16.082031 -17.722656 15.085938 -18.148438 C 14.085938 -18.570312 13 -18.785156 11.824219 -18.785156 C 10.648438 -18.785156 9.5625 -18.570312 8.566406 -18.148438 C 7.566406 -17.722656 6.699219 -17.128906 5.960938 -16.355469 C 5.222656 -15.585938 4.648438 -14.683594 4.238281 -13.644531 C 3.828125 -12.605469 3.621094 -11.472656 3.621094 -10.253906 C 3.621094 -9.03125 3.828125 -7.902344 4.238281 -6.863281 C 4.648438 -5.824219 5.222656 -4.917969 5.960938 -4.148438 C 6.699219 -3.378906 7.566406 -2.78125 8.566406 -2.359375 C 9.5625 -1.933594 10.648438 -1.722656 11.824219 -1.722656 Z M 11.824219 -1.722656 "/></g></g></g><g fill="#000000" fill-opacity="1"><g transform="translate(1077.267789, 565.443808)"><g><path d="M 4.359375 6.835938 L 2.117188 6.835938 L 2.117188 -13.671875 L 4.113281 -13.671875 L 4.222656 -11.675781 C 4.863281 -12.375 5.632812 -12.929688 6.535156 -13.335938 C 7.4375 -13.742188 8.425781 -13.945312 9.5 -13.945312 C 10.839844 -13.945312 12.042969 -13.632812 13.101562 -13.015625 C 14.164062 -12.394531 15.003906 -11.550781 15.617188 -10.480469 C 16.234375 -9.40625 16.542969 -8.191406 16.542969 -6.835938 C 16.542969 -5.488281 16.234375 -4.273438 15.617188 -3.199219 C 15.003906 -2.125 14.164062 -1.277344 13.101562 -0.65625 C 12.042969 -0.0351562 10.839844 0.273438 9.5 0.273438 C 8.472656 0.273438 7.515625 0.0859375 6.636719 -0.285156 C 5.757812 -0.660156 5 -1.179688 4.359375 -1.84375 Z M 9.324219 -1.777344 C 10.28125 -1.777344 11.128906 -1.992188 11.867188 -2.425781 C 12.605469 -2.859375 13.179688 -3.457031 13.59375 -4.222656 C 14.011719 -4.988281 14.21875 -5.863281 14.21875 -6.847656 C 14.21875 -7.84375 14.007812 -8.71875 13.589844 -9.480469 C 13.167969 -10.242188 12.59375 -10.839844 11.859375 -11.277344 C 11.125 -11.714844 10.285156 -11.933594 9.335938 -11.933594 C 8.433594 -11.933594 7.621094 -11.734375 6.898438 -11.332031 C 6.171875 -10.933594 5.585938 -10.382812 5.140625 -9.6875 C 4.695312 -8.988281 4.433594 -8.191406 4.359375 -7.300781 L 4.359375 -6.371094 C 4.433594 -5.476562 4.6875 -4.683594 5.125 -3.992188 C 5.5625 -3.300781 6.144531 -2.757812 6.871094 -2.363281 C 7.59375 -1.972656 8.410156 -1.777344 9.324219 -1.777344 Z M 9.324219 -1.777344 "/></g></g></g><g fill="#000000" fill-opacity="1"><g transform="translate(1094.833702, 565.443808)"><g><path d="M 10.046875 -0.328125 C 9.144531 0.0742188 8.265625 0.273438 7.410156 0.273438 C 6.589844 0.273438 5.871094 0.09375 5.25 -0.265625 C 4.628906 -0.625 4.148438 -1.132812 3.800781 -1.785156 C 3.453125 -2.4375 3.28125 -3.195312 3.28125 -4.058594 L 3.28125 -11.660156 L 0.886719 -11.660156 L 0.886719 -13.671875 L 3.390625 -13.671875 L 3.390625 -17.089844 L 5.523438 -17.089844 L 5.523438 -13.671875 L 9.609375 -13.671875 L 9.609375 -11.660156 L 5.523438 -11.660156 L 5.523438 -4.46875 C 5.523438 -3.648438 5.742188 -2.988281 6.1875 -2.488281 C 6.628906 -1.988281 7.210938 -1.734375 7.929688 -1.734375 C 8.511719 -1.734375 9.09375 -1.910156 9.679688 -2.253906 Z M 10.046875 -0.328125 "/></g></g></g><g fill="#000000" fill-opacity="1"><g transform="translate(1105.769676, 565.443808)"><g><path d="M 3.292969 -17.992188 C 2.910156 -17.992188 2.589844 -18.125 2.332031 -18.394531 C 2.070312 -18.664062 1.941406 -18.988281 1.941406 -19.371094 C 1.941406 -19.746094 2.070312 -20.0625 2.332031 -20.328125 C 2.589844 -20.59375 2.910156 -20.726562 3.292969 -20.726562 C 3.6875 -20.726562 4.015625 -20.59375 4.277344 -20.328125 C 4.542969 -20.0625 4.675781 -19.746094 4.675781 -19.371094 C 4.675781 -18.988281 4.542969 -18.664062 4.277344 -18.394531 C 4.015625 -18.125 3.6875 -17.992188 3.292969 -17.992188 Z M 4.414062 0 L 2.171875 0 L 2.171875 -13.671875 L 4.414062 -13.671875 Z M 4.414062 0 "/></g></g></g><g fill="#000000" fill-opacity="1"><g transform="translate(1112.372276, 565.443808)"><g><path d="M 23.757812 0 L 21.519531 0 L 21.519531 -7.285156 C 21.519531 -8.753906 21.195312 -9.894531 20.554688 -10.710938 C 19.910156 -11.527344 19.007812 -11.933594 17.839844 -11.933594 C 16.664062 -11.933594 15.742188 -11.523438 15.070312 -10.699219 C 14.402344 -9.871094 14.066406 -8.734375 14.066406 -7.285156 L 14.066406 0 L 11.824219 0 L 11.824219 -7.285156 C 11.824219 -8.753906 11.5 -9.894531 10.855469 -10.710938 C 10.207031 -11.527344 9.300781 -11.933594 8.132812 -11.933594 C 6.957031 -11.933594 6.035156 -11.523438 5.367188 -10.699219 C 4.695312 -9.871094 4.359375 -8.734375 4.359375 -7.285156 L 4.359375 0 L 2.117188 0 L 2.117188 -13.671875 L 3.949219 -13.671875 L 4.046875 -11.222656 C 4.503906 -12.117188 5.125 -12.792969 5.914062 -13.253906 C 6.699219 -13.714844 7.632812 -13.945312 8.707031 -13.945312 C 9.855469 -13.945312 10.839844 -13.6875 11.652344 -13.171875 C 12.46875 -12.65625 13.078125 -11.921875 13.480469 -10.964844 C 13.925781 -11.9375 14.5625 -12.679688 15.386719 -13.183594 C 16.210938 -13.691406 17.199219 -13.945312 18.347656 -13.945312 C 20.050781 -13.945312 21.378906 -13.402344 22.332031 -12.324219 C 23.285156 -11.242188 23.757812 -9.738281 23.757812 -7.804688 Z M 23.757812 0 "/></g></g></g><g fill="#000000" fill-opacity="1"><g transform="translate(1137.97613, 565.443808)"><g><path d="M 3.292969 -17.992188 C 2.910156 -17.992188 2.589844 -18.125 2.332031 -18.394531 C 2.070312 -18.664062 1.941406 -18.988281 1.941406 -19.371094 C 1.941406 -19.746094 2.070312 -20.0625 2.332031 -20.328125 C 2.589844 -20.59375 2.910156 -20.726562 3.292969 -20.726562 C 3.6875 -20.726562 4.015625 -20.59375 4.277344 -20.328125 C 4.542969 -20.0625 4.675781 -19.746094 4.675781 -19.371094 C 4.675781 -18.988281 4.542969 -18.664062 4.277344 -18.394531 C 4.015625 -18.125 3.6875 -17.992188 3.292969 -17.992188 Z M 4.414062 0 L 2.171875 0 L 2.171875 -13.671875 L 4.414062 -13.671875 Z M 4.414062 0 "/></g></g></g><g fill="#000000" fill-opacity="1"><g transform="translate(1144.57873, 565.443808)"><g><path d="M 13.234375 0 L 1.023438 0 L 1.023438 -1.242188 L 9.488281 -11.648438 L 1.433594 -11.648438 L 1.433594 -13.671875 L 12.890625 -13.671875 L 12.890625 -12.589844 L 4.304688 -2.023438 L 13.234375 -2.023438 Z M 13.234375 0 "/></g></g></g><g fill="#000000" fill-opacity="1"><g transform="translate(1158.836511, 565.443808)"><g><path d="M 3.292969 -17.992188 C 2.910156 -17.992188 2.589844 -18.125 2.332031 -18.394531 C 2.070312 -18.664062 1.941406 -18.988281 1.941406 -19.371094 C 1.941406 -19.746094 2.070312 -20.0625 2.332031 -20.328125 C 2.589844 -20.59375 2.910156 -20.726562 3.292969 -20.726562 C 3.6875 -20.726562 4.015625 -20.59375 4.277344 -20.328125 C 4.542969 -20.0625 4.675781 -19.746094 4.675781 -19.371094 C 4.675781 -18.988281 4.542969 -18.664062 4.277344 -18.394531 C 4.015625 -18.125 3.6875 -17.992188 3.292969 -17.992188 Z M 4.414062 0 L 2.171875 0 L 2.171875 -13.671875 L 4.414062 -13.671875 Z M 4.414062 0 "/></g></g></g><g fill="#000000" fill-opacity="1"><g transform="translate(1165.439111, 565.443808)"><g><path d="M 14.914062 0 L 12.671875 0 L 12.671875 -7.886719 C 12.671875 -9.117188 12.328125 -10.09375 11.640625 -10.8125 C 10.953125 -11.535156 10.015625 -11.894531 8.832031 -11.894531 C 7.984375 -11.894531 7.222656 -11.703125 6.546875 -11.324219 C 5.875 -10.949219 5.339844 -10.417969 4.949219 -9.734375 C 4.558594 -9.050781 4.359375 -8.257812 4.359375 -7.355469 L 4.359375 0 L 2.117188 0 L 2.117188 -13.671875 L 4.074219 -13.671875 L 4.15625 -11.457031 C 4.65625 -12.257812 5.351562 -12.875 6.242188 -13.300781 C 7.128906 -13.730469 8.128906 -13.945312 9.242188 -13.945312 C 10.980469 -13.945312 12.363281 -13.421875 13.382812 -12.371094 C 14.40625 -11.324219 14.914062 -9.910156 14.914062 -8.132812 Z M 14.914062 0 "/></g></g></g><g fill="#000000" fill-opacity="1"><g transform="translate(1182.19849, 565.443808)"><g><path d="M 7.929688 0 C 6.617188 0 5.4375 -0.304688 4.394531 -0.914062 C 3.351562 -1.527344 2.527344 -2.359375 1.925781 -3.410156 C 1.324219 -4.464844 1.023438 -5.652344 1.023438 -6.972656 C 1.023438 -8.300781 1.324219 -9.492188 1.925781 -10.539062 C 2.527344 -11.589844 3.351562 -12.417969 4.394531 -13.027344 C 5.4375 -13.640625 6.621094 -13.945312 7.941406 -13.945312 C 9 -13.945312 9.96875 -13.746094 10.855469 -13.347656 C 11.738281 -12.953125 12.492188 -12.402344 13.109375 -11.703125 L 13.21875 -13.671875 L 15.203125 -13.671875 L 15.203125 -0.355469 C 15.203125 1.175781 14.902344 2.5 14.300781 3.617188 C 13.699219 4.730469 12.839844 5.59375 11.730469 6.199219 C 10.617188 6.804688 9.296875 7.109375 7.765625 7.109375 C 5.597656 7.109375 3.710938 6.390625 2.105469 4.949219 L 3.089844 3.144531 C 4.339844 4.4375 5.863281 5.085938 7.667969 5.085938 C 8.753906 5.085938 9.691406 4.859375 10.480469 4.410156 C 11.265625 3.957031 11.878906 3.320312 12.308594 2.5 C 12.742188 1.679688 12.960938 0.710938 12.960938 -0.410156 L 12.960938 -2.089844 C 12.339844 -1.445312 11.597656 -0.933594 10.738281 -0.558594 C 9.878906 -0.1875 8.941406 0 7.929688 0 Z M 8.121094 -1.980469 C 9.011719 -1.980469 9.824219 -2.183594 10.554688 -2.589844 C 11.28125 -2.996094 11.867188 -3.550781 12.304688 -4.257812 C 12.742188 -4.964844 12.960938 -5.765625 12.960938 -6.65625 L 12.960938 -7.285156 C 12.960938 -8.1875 12.742188 -8.992188 12.304688 -9.691406 C 11.867188 -10.394531 11.28125 -10.949219 10.554688 -11.351562 C 9.824219 -11.757812 9.011719 -11.960938 8.121094 -11.960938 C 7.199219 -11.960938 6.375 -11.742188 5.644531 -11.304688 C 4.917969 -10.867188 4.339844 -10.273438 3.917969 -9.523438 C 3.492188 -8.769531 3.28125 -7.917969 3.28125 -6.972656 C 3.28125 -6.023438 3.492188 -5.171875 3.917969 -4.414062 C 4.339844 -3.660156 4.917969 -3.066406 5.644531 -2.632812 C 6.375 -2.199219 7.199219 -1.980469 8.121094 -1.980469 Z M 8.121094 -1.980469 "/></g></g></g><g fill="#000000" fill-opacity="1"><g transform="translate(1199.381644, 565.443808)"><g/></g></g><g fill="#000000" fill-opacity="1"><g transform="translate(1206.216627, 565.443808)"><g><path d="M 21.914062 0 L 19.835938 0 L 14.667969 -16.363281 L 9.5 0 L 7.421875 0 L 0.75 -20.507812 L 3.265625 -20.507812 L 8.449219 -4.101562 L 13.628906 -20.507812 L 15.707031 -20.507812 L 20.875 -4.140625 L 26.027344 -20.507812 L 28.558594 -20.507812 Z M 21.914062 0 "/></g></g></g><g fill="#000000" fill-opacity="1"><g transform="translate(1235.525037, 565.443808)"><g><path d="M 8.1875 0.273438 C 6.832031 0.273438 5.609375 -0.0351562 4.523438 -0.65625 C 3.441406 -1.277344 2.585938 -2.121094 1.960938 -3.191406 C 1.335938 -4.261719 1.023438 -5.476562 1.023438 -6.835938 C 1.023438 -8.183594 1.335938 -9.394531 1.960938 -10.464844 C 2.585938 -11.535156 3.441406 -12.382812 4.523438 -13.007812 C 5.609375 -13.632812 6.832031 -13.945312 8.1875 -13.945312 C 9.546875 -13.945312 10.761719 -13.632812 11.839844 -13.007812 C 12.914062 -12.382812 13.761719 -11.535156 14.382812 -10.464844 C 15 -9.394531 15.3125 -8.183594 15.3125 -6.835938 C 15.3125 -5.476562 15 -4.261719 14.382812 -3.191406 C 13.761719 -2.121094 12.914062 -1.277344 11.839844 -0.65625 C 10.761719 -0.0351562 9.546875 0.273438 8.1875 0.273438 Z M 8.175781 -1.75 C 9.09375 -1.75 9.921875 -1.972656 10.648438 -2.417969 C 11.378906 -2.867188 11.953125 -3.472656 12.378906 -4.238281 C 12.800781 -5.003906 13.015625 -5.871094 13.015625 -6.835938 C 13.015625 -7.800781 12.800781 -8.667969 12.378906 -9.433594 C 11.953125 -10.199219 11.378906 -10.804688 10.648438 -11.25 C 9.921875 -11.699219 9.09375 -11.921875 8.175781 -11.921875 C 7.253906 -11.921875 6.425781 -11.699219 5.695312 -11.25 C 4.960938 -10.804688 4.382812 -10.199219 3.957031 -9.433594 C 3.535156 -8.667969 3.320312 -7.800781 3.320312 -6.835938 C 3.320312 -5.871094 3.535156 -5.003906 3.957031 -4.238281 C 4.382812 -3.472656 4.960938 -2.867188 5.695312 -2.417969 C 6.425781 -1.972656 7.253906 -1.75 8.175781 -1.75 Z M 8.175781 -1.75 "/></g></g></g><g fill="#000000" fill-opacity="1"><g transform="translate(1251.860641, 565.443808)"><g><path d="M 4.359375 0 L 2.117188 0 L 2.117188 -13.671875 L 4.085938 -13.671875 L 4.183594 -10.964844 C 4.65625 -11.902344 5.324219 -12.632812 6.1875 -13.15625 C 7.046875 -13.683594 8.039062 -13.945312 9.160156 -13.945312 C 9.40625 -13.945312 9.65625 -13.929688 9.910156 -13.902344 C 10.167969 -13.875 10.421875 -13.835938 10.675781 -13.78125 L 10.402344 -11.757812 C 9.902344 -11.875 9.40625 -11.933594 8.914062 -11.933594 C 8.019531 -11.933594 7.230469 -11.714844 6.542969 -11.277344 C 5.851562 -10.839844 5.316406 -10.238281 4.933594 -9.472656 C 4.550781 -8.707031 4.359375 -7.828125 4.359375 -6.835938 Z M 4.359375 0 "/></g></g></g><g fill="#000000" fill-opacity="1"><g transform="translate(1262.741935, 565.443808)"><g><path d="M 4.359375 0 L 2.117188 0 L 2.117188 -20.507812 L 4.359375 -20.507812 L 4.359375 -6.070312 L 5.425781 -7.367188 L 11.375 -13.671875 L 14.191406 -13.671875 L 8.613281 -7.738281 L 15.050781 0 L 12.140625 0 L 7.054688 -6.097656 L 4.359375 -3.226562 Z M 4.359375 0 "/></g></g></g><g fill="#000000" fill-opacity="1"><g transform="translate(1278.407728, 565.443808)"><g><path d="M 5.386719 0 L 3.144531 0 L 3.144531 -11.660156 L 0.75 -11.660156 L 0.75 -13.671875 L 3.144531 -13.671875 L 3.144531 -16.609375 C 3.144531 -17.457031 3.324219 -18.203125 3.683594 -18.851562 C 4.042969 -19.5 4.546875 -20.003906 5.1875 -20.371094 C 5.832031 -20.734375 6.570312 -20.917969 7.410156 -20.917969 C 7.929688 -20.917969 8.449219 -20.84375 8.976562 -20.703125 C 9.5 -20.5625 10.011719 -20.347656 10.511719 -20.054688 L 9.652344 -18.292969 C 9.339844 -18.492188 9.027344 -18.644531 8.707031 -18.75 C 8.390625 -18.855469 8.070312 -18.90625 7.75 -18.90625 C 7.050781 -18.90625 6.480469 -18.652344 6.042969 -18.148438 C 5.605469 -17.640625 5.386719 -16.984375 5.386719 -16.171875 L 5.386719 -13.671875 L 9.609375 -13.671875 L 9.609375 -11.660156 L 5.386719 -11.660156 Z M 5.386719 0 "/></g></g></g><g fill="#000000" fill-opacity="1"><g transform="translate(1289.671781, 565.443808)"><g><path d="M 2.117188 -20.507812 L 4.496094 -20.507812 L 4.496094 0 L 2.117188 0 Z M 2.117188 -20.507812 "/></g></g></g><g fill="#000000" fill-opacity="1"><g transform="translate(1296.288045, 565.443808)"><g><path d="M 8.1875 0.273438 C 6.832031 0.273438 5.609375 -0.0351562 4.523438 -0.65625 C 3.441406 -1.277344 2.585938 -2.121094 1.960938 -3.191406 C 1.335938 -4.261719 1.023438 -5.476562 1.023438 -6.835938 C 1.023438 -8.183594 1.335938 -9.394531 1.960938 -10.464844 C 2.585938 -11.535156 3.441406 -12.382812 4.523438 -13.007812 C 5.609375 -13.632812 6.832031 -13.945312 8.1875 -13.945312 C 9.546875 -13.945312 10.761719 -13.632812 11.839844 -13.007812 C 12.914062 -12.382812 13.761719 -11.535156 14.382812 -10.464844 C 15 -9.394531 15.3125 -8.183594 15.3125 -6.835938 C 15.3125 -5.476562 15 -4.261719 14.382812 -3.191406 C 13.761719 -2.121094 12.914062 -1.277344 11.839844 -0.65625 C 10.761719 -0.0351562 9.546875 0.273438 8.1875 0.273438 Z M 8.175781 -1.75 C 9.09375 -1.75 9.921875 -1.972656 10.648438 -2.417969 C 11.378906 -2.867188 11.953125 -3.472656 12.378906 -4.238281 C 12.800781 -5.003906 13.015625 -5.871094 13.015625 -6.835938 C 13.015625 -7.800781 12.800781 -8.667969 12.378906 -9.433594 C 11.953125 -10.199219 11.378906 -10.804688 10.648438 -11.25 C 9.921875 -11.699219 9.09375 -11.921875 8.175781 -11.921875 C 7.253906 -11.921875 6.425781 -11.699219 5.695312 -11.25 C 4.960938 -10.804688 4.382812 -10.199219 3.957031 -9.433594 C 3.535156 -8.667969 3.320312 -7.800781 3.320312 -6.835938 C 3.320312 -5.871094 3.535156 -5.003906 3.957031 -4.238281 C 4.382812 -3.472656 4.960938 -2.867188 5.695312 -2.417969 C 6.425781 -1.972656 7.253906 -1.75 8.175781 -1.75 Z M 8.175781 -1.75 "/></g></g></g><g fill="#000000" fill-opacity="1"><g transform="translate(1312.623662, 565.443808)"><g><path d="M 16.488281 0 L 13.890625 0 L 10.800781 -10.445312 L 7.710938 0 L 5.113281 0 L 0.75 -13.671875 L 3.128906 -13.671875 L 6.398438 -2.734375 L 9.746094 -13.671875 L 11.851562 -13.671875 L 15.203125 -2.734375 L 18.484375 -13.671875 L 20.863281 -13.671875 Z M 16.488281 0 "/></g></g></g><g fill="#000000" fill-opacity="1"><g transform="translate(1334.235897, 565.443808)"><g><path d="M 1.160156 -1.1875 L 1.75 -3.292969 C 2.078125 -2.984375 2.453125 -2.714844 2.871094 -2.488281 C 3.289062 -2.261719 3.730469 -2.085938 4.195312 -1.960938 C 4.660156 -1.839844 5.132812 -1.777344 5.605469 -1.777344 C 6.453125 -1.777344 7.136719 -1.964844 7.65625 -2.335938 C 8.175781 -2.710938 8.433594 -3.199219 8.433594 -3.800781 C 8.433594 -4.238281 8.300781 -4.601562 8.03125 -4.886719 C 7.761719 -5.175781 7.410156 -5.421875 6.972656 -5.632812 C 6.535156 -5.84375 6.066406 -6.042969 5.5625 -6.234375 C 4.953125 -6.472656 4.347656 -6.738281 3.746094 -7.039062 C 3.144531 -7.339844 2.644531 -7.738281 2.25 -8.230469 C 1.851562 -8.722656 1.652344 -9.367188 1.652344 -10.171875 C 1.652344 -10.9375 1.84375 -11.601562 2.226562 -12.167969 C 2.609375 -12.730469 3.148438 -13.167969 3.835938 -13.480469 C 4.523438 -13.789062 5.3125 -13.945312 6.207031 -13.945312 C 7.554688 -13.945312 8.882812 -13.605469 10.183594 -12.933594 L 9.515625 -10.910156 C 9.222656 -11.101562 8.886719 -11.269531 8.503906 -11.421875 C 8.121094 -11.570312 7.726562 -11.6875 7.328125 -11.769531 C 6.925781 -11.851562 6.546875 -11.894531 6.191406 -11.894531 C 5.527344 -11.894531 4.988281 -11.742188 4.578125 -11.433594 C 4.167969 -11.128906 3.964844 -10.722656 3.964844 -10.210938 C 3.964844 -9.921875 4.046875 -9.652344 4.21875 -9.414062 C 4.386719 -9.171875 4.671875 -8.929688 5.070312 -8.695312 C 5.472656 -8.457031 6.027344 -8.191406 6.738281 -7.902344 C 7.367188 -7.644531 7.988281 -7.355469 8.597656 -7.035156 C 9.210938 -6.710938 9.71875 -6.296875 10.125 -5.789062 C 10.527344 -5.285156 10.730469 -4.625 10.730469 -3.8125 C 10.730469 -3.011719 10.519531 -2.304688 10.097656 -1.6875 C 9.671875 -1.074219 9.085938 -0.59375 8.332031 -0.246094 C 7.582031 0.101562 6.710938 0.273438 5.726562 0.273438 C 4.097656 0.273438 2.574219 -0.214844 1.160156 -1.1875 Z M 1.160156 -1.1875 "/></g></g></g><g fill="#000000" fill-opacity="1"><g transform="translate(1099.476158, 604.443806)"><g><path d="M 2.117188 0 L 2.117188 -20.507812 L 14.476562 -20.507812 L 14.476562 -18.375 L 4.523438 -18.375 L 4.523438 -11.484375 L 13.917969 -11.484375 L 13.917969 -9.351562 L 4.523438 -9.351562 L 4.523438 0 Z M 2.117188 0 "/></g></g></g><g fill="#000000" fill-opacity="1"><g transform="translate(1115.934798, 604.443806)"><g><path d="M 8.1875 0.273438 C 6.832031 0.273438 5.609375 -0.0351562 4.523438 -0.65625 C 3.441406 -1.277344 2.585938 -2.121094 1.960938 -3.191406 C 1.335938 -4.261719 1.023438 -5.476562 1.023438 -6.835938 C 1.023438 -8.183594 1.335938 -9.394531 1.960938 -10.464844 C 2.585938 -11.535156 3.441406 -12.382812 4.523438 -13.007812 C 5.609375 -13.632812 6.832031 -13.945312 8.1875 -13.945312 C 9.546875 -13.945312 10.761719 -13.632812 11.839844 -13.007812 C 12.914062 -12.382812 13.761719 -11.535156 14.382812 -10.464844 C 15 -9.394531 15.3125 -8.183594 15.3125 -6.835938 C 15.3125 -5.476562 15 -4.261719 14.382812 -3.191406 C 13.761719 -2.121094 12.914062 -1.277344 11.839844 -0.65625 C 10.761719 -0.0351562 9.546875 0.273438 8.1875 0.273438 Z M 8.175781 -1.75 C 9.09375 -1.75 9.921875 -1.972656 10.648438 -2.417969 C 11.378906 -2.867188 11.953125 -3.472656 12.378906 -4.238281 C 12.800781 -5.003906 13.015625 -5.871094 13.015625 -6.835938 C 13.015625 -7.800781 12.800781 -8.667969 12.378906 -9.433594 C 11.953125 -10.199219 11.378906 -10.804688 10.648438 -11.25 C 9.921875 -11.699219 9.09375 -11.921875 8.175781 -11.921875 C 7.253906 -11.921875 6.425781 -11.699219 5.695312 -11.25 C 4.960938 -10.804688 4.382812 -10.199219 3.957031 -9.433594 C 3.535156 -8.667969 3.320312 -7.800781 3.320312 -6.835938 C 3.320312 -5.871094 3.535156 -5.003906 3.957031 -4.238281 C 4.382812 -3.472656 4.960938 -2.867188 5.695312 -2.417969 C 6.425781 -1.972656 7.253906 -1.75 8.175781 -1.75 Z M 8.175781 -1.75 "/></g></g></g><g fill="#000000" fill-opacity="1"><g transform="translate(1132.270415, 604.443806)"><g><path d="M 4.359375 0 L 2.117188 0 L 2.117188 -13.671875 L 4.085938 -13.671875 L 4.183594 -10.964844 C 4.65625 -11.902344 5.324219 -12.632812 6.1875 -13.15625 C 7.046875 -13.683594 8.039062 -13.945312 9.160156 -13.945312 C 9.40625 -13.945312 9.65625 -13.929688 9.910156 -13.902344 C 10.167969 -13.875 10.421875 -13.835938 10.675781 -13.78125 L 10.402344 -11.757812 C 9.902344 -11.875 9.40625 -11.933594 8.914062 -11.933594 C 8.019531 -11.933594 7.230469 -11.714844 6.542969 -11.277344 C 5.851562 -10.839844 5.316406 -10.238281 4.933594 -9.472656 C 4.550781 -8.707031 4.359375 -7.828125 4.359375 -6.835938 Z M 4.359375 0 "/></g></g></g><g fill="#000000" fill-opacity="1"><g transform="translate(1143.151708, 604.443806)"><g/></g></g><g fill="#000000" fill-opacity="1"><g transform="translate(1149.986692, 604.443806)"><g><path d="M 19.453125 -2.625 C 18.515625 -1.675781 17.394531 -0.933594 16.089844 -0.394531 C 14.785156 0.140625 13.367188 0.410156 11.824219 0.410156 C 10.285156 0.410156 8.867188 0.144531 7.566406 -0.382812 C 6.269531 -0.910156 5.140625 -1.65625 4.183594 -2.617188 C 3.226562 -3.578125 2.484375 -4.710938 1.953125 -6.007812 C 1.425781 -7.308594 1.160156 -8.722656 1.160156 -10.253906 C 1.160156 -11.792969 1.425781 -13.210938 1.953125 -14.511719 C 2.484375 -15.808594 3.226562 -16.9375 4.183594 -17.894531 C 5.140625 -18.851562 6.269531 -19.59375 7.566406 -20.125 C 8.867188 -20.652344 10.285156 -20.917969 11.824219 -20.917969 C 13.355469 -20.917969 14.773438 -20.648438 16.078125 -20.117188 C 17.378906 -19.582031 18.5 -18.84375 19.441406 -17.894531 L 17.757812 -16.1875 C 17.027344 -16.996094 16.152344 -17.632812 15.132812 -18.09375 C 14.113281 -18.554688 12.996094 -18.785156 11.785156 -18.785156 C 10.609375 -18.785156 9.523438 -18.570312 8.53125 -18.148438 C 7.535156 -17.722656 6.671875 -17.128906 5.941406 -16.355469 C 5.207031 -15.585938 4.636719 -14.683594 4.230469 -13.644531 C 3.824219 -12.605469 3.621094 -11.472656 3.621094 -10.253906 C 3.621094 -9.023438 3.824219 -7.890625 4.230469 -6.855469 C 4.636719 -5.820312 5.207031 -4.917969 5.941406 -4.148438 C 6.671875 -3.378906 7.535156 -2.78125 8.53125 -2.359375 C 9.523438 -1.933594 10.609375 -1.722656 11.785156 -1.722656 C 12.996094 -1.722656 14.113281 -1.953125 15.132812 -2.414062 C 16.152344 -2.875 17.027344 -3.507812 17.757812 -4.320312 Z M 19.453125 -2.625 "/></g></g></g><g fill="#000000" fill-opacity="1"><g transform="translate(1170.874402, 604.443806)"><g><path d="M 2.117188 0 L 2.117188 -20.507812 L 8.433594 -20.507812 C 10.113281 -20.507812 11.550781 -20.246094 12.746094 -19.726562 C 13.945312 -19.207031 14.863281 -18.464844 15.503906 -17.5 C 16.140625 -16.53125 16.460938 -15.375 16.460938 -14.027344 C 16.460938 -12.6875 16.140625 -11.527344 15.503906 -10.554688 C 14.863281 -9.578125 13.945312 -8.828125 12.746094 -8.304688 C 11.550781 -7.78125 10.113281 -7.519531 8.433594 -7.519531 L 4.523438 -7.519531 L 4.523438 0 Z M 4.523438 -9.652344 L 8.230469 -9.652344 C 10.070312 -9.652344 11.492188 -10.039062 12.496094 -10.8125 C 13.496094 -11.589844 14 -12.660156 14 -14.027344 C 14 -15.394531 13.496094 -16.460938 12.496094 -17.226562 C 11.492188 -17.992188 10.070312 -18.375 8.230469 -18.375 L 4.523438 -18.375 Z M 4.523438 -9.652344 "/></g></g></g><g fill="#000000" fill-opacity="1"><g transform="translate(1188.494995, 604.443806)"><g><path d="M 3.144531 0 L 0.613281 0 L 9.035156 -20.507812 L 11.648438 -20.507812 L 20.054688 0 L 17.527344 0 L 15.296875 -5.535156 L 5.371094 -5.535156 Z M 6.21875 -7.667969 L 14.449219 -7.667969 L 10.335938 -17.910156 Z M 6.21875 -7.667969 "/></g></g></g><g fill="#000000" fill-opacity="1"><g transform="translate(1209.163985, 604.443806)"><g><path d="M 1.160156 -1.1875 L 1.75 -3.292969 C 2.078125 -2.984375 2.453125 -2.714844 2.871094 -2.488281 C 3.289062 -2.261719 3.730469 -2.085938 4.195312 -1.960938 C 4.660156 -1.839844 5.132812 -1.777344 5.605469 -1.777344 C 6.453125 -1.777344 7.136719 -1.964844 7.65625 -2.335938 C 8.175781 -2.710938 8.433594 -3.199219 8.433594 -3.800781 C 8.433594 -4.238281 8.300781 -4.601562 8.03125 -4.886719 C 7.761719 -5.175781 7.410156 -5.421875 6.972656 -5.632812 C 6.535156 -5.84375 6.066406 -6.042969 5.5625 -6.234375 C 4.953125 -6.472656 4.347656 -6.738281 3.746094 -7.039062 C 3.144531 -7.339844 2.644531 -7.738281 2.25 -8.230469 C 1.851562 -8.722656 1.652344 -9.367188 1.652344 -10.171875 C 1.652344 -10.9375 1.84375 -11.601562 2.226562 -12.167969 C 2.609375 -12.730469 3.148438 -13.167969 3.835938 -13.480469 C 4.523438 -13.789062 5.3125 -13.945312 6.207031 -13.945312 C 7.554688 -13.945312 8.882812 -13.605469 10.183594 -12.933594 L 9.515625 -10.910156 C 9.222656 -11.101562 8.886719 -11.269531 8.503906 -11.421875 C 8.121094 -11.570312 7.726562 -11.6875 7.328125 -11.769531 C 6.925781 -11.851562 6.546875 -11.894531 6.191406 -11.894531 C 5.527344 -11.894531 4.988281 -11.742188 4.578125 -11.433594 C 4.167969 -11.128906 3.964844 -10.722656 3.964844 -10.210938 C 3.964844 -9.921875 4.046875 -9.652344 4.21875 -9.414062 C 4.386719 -9.171875 4.671875 -8.929688 5.070312 -8.695312 C 5.472656 -8.457031 6.027344 -8.191406 6.738281 -7.902344 C 7.367188 -7.644531 7.988281 -7.355469 8.597656 -7.035156 C 9.210938 -6.710938 9.71875 -6.296875 10.125 -5.789062 C 10.527344 -5.285156 10.730469 -4.625 10.730469 -3.8125 C 10.730469 -3.011719 10.519531 -2.304688 10.097656 -1.6875 C 9.671875 -1.074219 9.085938 -0.59375 8.332031 -0.246094 C 7.582031 0.101562 6.710938 0.273438 5.726562 0.273438 C 4.097656 0.273438 2.574219 -0.214844 1.160156 -1.1875 Z M 1.160156 -1.1875 "/></g></g></g><g fill="#000000" fill-opacity="1"><g transform="translate(1221.056856, 604.443806)"><g><path d="M 3.226562 3.28125 L 1.570312 3.28125 L 2.664062 -2.460938 L 4.714844 -2.460938 Z M 3.226562 3.28125 "/></g></g></g><g fill="#000000" fill-opacity="1"><g transform="translate(1227.48174, 604.443806)"><g/></g></g><g fill="#000000" fill-opacity="1"><g transform="translate(1234.316724, 604.443806)"><g><path d="M 2.117188 0 L 2.117188 -20.507812 L 9.390625 -20.507812 C 11.351562 -20.507812 12.890625 -20.054688 14.011719 -19.152344 C 15.132812 -18.25 15.695312 -17.011719 15.695312 -15.433594 C 15.695312 -14.3125 15.414062 -13.335938 14.859375 -12.5 C 14.304688 -11.667969 13.5625 -11.0625 12.632812 -10.691406 C 13.878906 -10.378906 14.863281 -9.785156 15.578125 -8.90625 C 16.292969 -8.027344 16.652344 -6.949219 16.652344 -5.671875 C 16.652344 -4.542969 16.371094 -3.550781 15.808594 -2.699219 C 15.25 -1.847656 14.46875 -1.183594 13.464844 -0.710938 C 12.464844 -0.238281 11.292969 0 9.953125 0 Z M 4.523438 -11.457031 L 9.335938 -11.457031 C 10.539062 -11.457031 11.503906 -11.773438 12.226562 -12.414062 C 12.953125 -13.050781 13.316406 -13.894531 13.316406 -14.941406 C 13.316406 -16 12.945312 -16.835938 12.207031 -17.449219 C 11.46875 -18.066406 10.460938 -18.375 9.1875 -18.375 L 4.523438 -18.375 Z M 4.523438 -2.132812 L 9.433594 -2.132812 C 10.378906 -2.132812 11.210938 -2.292969 11.921875 -2.617188 C 12.632812 -2.941406 13.1875 -3.394531 13.589844 -3.972656 C 13.988281 -4.550781 14.191406 -5.21875 14.191406 -5.972656 C 14.191406 -6.710938 14 -7.355469 13.621094 -7.902344 C 13.246094 -8.449219 12.710938 -8.871094 12.023438 -9.167969 C 11.335938 -9.460938 10.527344 -9.609375 9.597656 -9.609375 L 4.523438 -9.609375 Z M 4.523438 -2.132812 "/></g></g></g><g fill="#000000" fill-opacity="1"><g transform="translate(1252.128697, 604.443806)"><g><path d="M 6.863281 6.835938 L 4.414062 6.835938 L 7.285156 -0.109375 L 0.75 -13.671875 L 3.226562 -13.671875 L 8.367188 -2.691406 L 12.90625 -13.671875 L 15.339844 -13.671875 Z M 6.863281 6.835938 "/></g></g></g><g fill="#000000" fill-opacity="1"><g transform="translate(1268.218254, 604.443806)"><g/></g></g><g fill="#000000" fill-opacity="1"><g transform="translate(1275.053237, 604.443806)"><g><path d="M 19.453125 -2.625 C 18.515625 -1.675781 17.394531 -0.933594 16.089844 -0.394531 C 14.785156 0.140625 13.367188 0.410156 11.824219 0.410156 C 10.285156 0.410156 8.867188 0.144531 7.566406 -0.382812 C 6.269531 -0.910156 5.140625 -1.65625 4.183594 -2.617188 C 3.226562 -3.578125 2.484375 -4.710938 1.953125 -6.007812 C 1.425781 -7.308594 1.160156 -8.722656 1.160156 -10.253906 C 1.160156 -11.792969 1.425781 -13.210938 1.953125 -14.511719 C 2.484375 -15.808594 3.226562 -16.9375 4.183594 -17.894531 C 5.140625 -18.851562 6.269531 -19.59375 7.566406 -20.125 C 8.867188 -20.652344 10.285156 -20.917969 11.824219 -20.917969 C 13.355469 -20.917969 14.773438 -20.648438 16.078125 -20.117188 C 17.378906 -19.582031 18.5 -18.84375 19.441406 -17.894531 L 17.757812 -16.1875 C 17.027344 -16.996094 16.152344 -17.632812 15.132812 -18.09375 C 14.113281 -18.554688 12.996094 -18.785156 11.785156 -18.785156 C 10.609375 -18.785156 9.523438 -18.570312 8.53125 -18.148438 C 7.535156 -17.722656 6.671875 -17.128906 5.941406 -16.355469 C 5.207031 -15.585938 4.636719 -14.683594 4.230469 -13.644531 C 3.824219 -12.605469 3.621094 -11.472656 3.621094 -10.253906 C 3.621094 -9.023438 3.824219 -7.890625 4.230469 -6.855469 C 4.636719 -5.820312 5.207031 -4.917969 5.941406 -4.148438 C 6.671875 -3.378906 7.535156 -2.78125 8.53125 -2.359375 C 9.523438 -1.933594 10.609375 -1.722656 11.785156 -1.722656 C 12.996094 -1.722656 14.113281 -1.953125 15.132812 -2.414062 C 16.152344 -2.875 17.027344 -3.507812 17.757812 -4.320312 Z M 19.453125 -2.625 "/></g></g></g><g fill="#000000" fill-opacity="1"><g transform="translate(1295.940947, 604.443806)"><g><path d="M 2.117188 0 L 2.117188 -20.507812 L 8.433594 -20.507812 C 10.113281 -20.507812 11.550781 -20.246094 12.746094 -19.726562 C 13.945312 -19.207031 14.863281 -18.464844 15.503906 -17.5 C 16.140625 -16.53125 16.460938 -15.375 16.460938 -14.027344 C 16.460938 -12.6875 16.140625 -11.527344 15.503906 -10.554688 C 14.863281 -9.578125 13.945312 -8.828125 12.746094 -8.304688 C 11.550781 -7.78125 10.113281 -7.519531 8.433594 -7.519531 L 4.523438 -7.519531 L 4.523438 0 Z M 4.523438 -9.652344 L 8.230469 -9.652344 C 10.070312 -9.652344 11.492188 -10.039062 12.496094 -10.8125 C 13.496094 -11.589844 14 -12.660156 14 -14.027344 C 14 -15.394531 13.496094 -16.460938 12.496094 -17.226562 C 11.492188 -17.992188 10.070312 -18.375 8.230469 -18.375 L 4.523438 -18.375 Z M 4.523438 -9.652344 "/></g></g></g><g fill="#000000" fill-opacity="1"><g transform="translate(1313.561552, 604.443806)"><g><path d="M 3.144531 0 L 0.613281 0 L 9.035156 -20.507812 L 11.648438 -20.507812 L 20.054688 0 L 17.527344 0 L 15.296875 -5.535156 L 5.371094 -5.535156 Z M 6.21875 -7.667969 L 14.449219 -7.667969 L 10.335938 -17.910156 Z M 6.21875 -7.667969 "/></g></g></g><g fill="#000000" fill-opacity="1"><g transform="translate(1334.230542, 604.443806)"><g><path d="M 1.160156 -1.1875 L 1.75 -3.292969 C 2.078125 -2.984375 2.453125 -2.714844 2.871094 -2.488281 C 3.289062 -2.261719 3.730469 -2.085938 4.195312 -1.960938 C 4.660156 -1.839844 5.132812 -1.777344 5.605469 -1.777344 C 6.453125 -1.777344 7.136719 -1.964844 7.65625 -2.335938 C 8.175781 -2.710938 8.433594 -3.199219 8.433594 -3.800781 C 8.433594 -4.238281 8.300781 -4.601562 8.03125 -4.886719 C 7.761719 -5.175781 7.410156 -5.421875 6.972656 -5.632812 C 6.535156 -5.84375 6.066406 -6.042969 5.5625 -6.234375 C 4.953125 -6.472656 4.347656 -6.738281 3.746094 -7.039062 C 3.144531 -7.339844 2.644531 -7.738281 2.25 -8.230469 C 1.851562 -8.722656 1.652344 -9.367188 1.652344 -10.171875 C 1.652344 -10.9375 1.84375 -11.601562 2.226562 -12.167969 C 2.609375 -12.730469 3.148438 -13.167969 3.835938 -13.480469 C 4.523438 -13.789062 5.3125 -13.945312 6.207031 -13.945312 C 7.554688 -13.945312 8.882812 -13.605469 10.183594 -12.933594 L 9.515625 -10.910156 C 9.222656 -11.101562 8.886719 -11.269531 8.503906 -11.421875 C 8.121094 -11.570312 7.726562 -11.6875 7.328125 -11.769531 C 6.925781 -11.851562 6.546875 -11.894531 6.191406 -11.894531 C 5.527344 -11.894531 4.988281 -11.742188 4.578125 -11.433594 C 4.167969 -11.128906 3.964844 -10.722656 3.964844 -10.210938 C 3.964844 -9.921875 4.046875 -9.652344 4.21875 -9.414062 C 4.386719 -9.171875 4.671875 -8.929688 5.070312 -8.695312 C 5.472656 -8.457031 6.027344 -8.191406 6.738281 -7.902344 C 7.367188 -7.644531 7.988281 -7.355469 8.597656 -7.035156 C 9.210938 -6.710938 9.71875 -6.296875 10.125 -5.789062 C 10.527344 -5.285156 10.730469 -4.625 10.730469 -3.8125 C 10.730469 -3.011719 10.519531 -2.304688 10.097656 -1.6875 C 9.671875 -1.074219 9.085938 -0.59375 8.332031 -0.246094 C 7.582031 0.101562 6.710938 0.273438 5.726562 0.273438 C 4.097656 0.273438 2.574219 -0.214844 1.160156 -1.1875 Z M 1.160156 -1.1875 "/></g></g></g></svg>