<?xml version="1.0" standalone="no"?>
<!DOCTYPE svg PUBLIC "-//W3C//DTD SVG 1.1//EN" "http://www.w3.org/Graphics/SVG/1.1/DTD/svg11.dtd">
<svg xmlns="http://www.w3.org/2000/svg" width="254" height="90" viewBox="0 0 254 90" fill="none">
<path d="M57.7321 90V21.5274H71.6829V29.8919H72.314C72.934 28.5519 73.8309 27.1902 75.0045 25.8069C76.2003 24.402 77.7504 23.2349 79.6548 22.3055C81.5814 21.3545 83.973 20.879 86.8296 20.879C90.5498 20.879 93.9822 21.83 97.1267 23.732C100.271 25.6124 102.785 28.4546 104.667 32.2586C106.549 36.0411 107.49 40.7853 107.49 46.4914C107.49 52.0461 106.571 56.7363 104.733 60.562C102.917 64.366 100.437 67.2514 97.2928 69.2183C94.1704 71.1635 90.6716 72.1362 86.7964 72.1362C84.0505 72.1362 81.7143 71.6931 79.7877 70.8069C77.8833 69.9207 76.3221 68.8076 75.1042 67.4676C73.8862 66.1059 72.9562 64.7334 72.314 63.3501H71.8822V90H57.7321ZM71.5832 46.4265C71.5832 49.3876 72.004 51.9705 72.8455 54.1751C73.6869 56.3797 74.9049 58.098 76.4993 59.33C78.0937 60.5403 80.0313 61.1455 82.3121 61.1455C84.6151 61.1455 86.5638 60.5295 88.1582 59.2975C89.7526 58.0439 90.9595 56.3148 91.7788 54.1102C92.6203 51.884 93.0411 49.3228 93.0411 46.4265C93.0411 43.5519 92.6314 41.0231 91.8121 38.8401C90.9927 36.6571 89.7859 34.9496 88.1915 33.7176C86.5971 32.4856 84.6373 31.8696 82.3121 31.8696C80.0091 31.8696 78.0604 32.464 76.466 33.6527C74.8938 34.8415 73.6869 36.5274 72.8455 38.7104C72.004 40.8934 71.5832 43.4654 71.5832 46.4265Z" fill="black"/>
<path fill-rule="evenodd" clip-rule="evenodd" d="M144.062 31.902V21.5274H134.462V9.59654H120.312V21.5274H113.336V31.902H120.312V57.8386C120.29 61.1023 120.987 63.804 122.404 65.9438C123.822 68.0836 125.804 69.6614 128.35 70.6772C130.919 71.6931 133.908 72.1362 137.319 72.0065C139.157 71.9416 140.718 71.7579 142.002 71.4553C143.286 71.1743 144.283 70.9258 144.992 70.7097L142.766 60.4323C142.412 60.4971 141.902 60.5944 141.238 60.7241C140.574 60.8321 139.909 60.8862 139.245 60.8862C138.293 60.8862 137.451 60.7457 136.721 60.4647C136.012 60.1837 135.458 59.6974 135.06 59.0058C134.661 58.2925 134.462 57.2983 134.462 56.0231V31.902H144.062Z" fill="black"/>
<path fill-rule="evenodd" clip-rule="evenodd" d="M193.853 8.55908C193.853 13.2861 189.927 17.1182 185.084 17.1182C180.241 17.1182 176.315 13.2861 176.315 8.55908C176.315 3.83203 180.241 0 185.084 0C189.927 0 193.853 3.83203 193.853 8.55908Z" fill="#FF6645"/>
<path d="M178.765 71.3256V21.5274H192.915V71.3256H178.765Z" fill="black"/>
<path d="M153.279 71.3256V21.5274H167.429V71.3256H153.279Z" fill="black"/>
<path fill-rule="evenodd" clip-rule="evenodd" d="M169.007 8.55908C169.007 13.2861 165.081 17.1182 160.238 17.1182C155.395 17.1182 151.469 13.2861 151.469 8.55908C151.469 3.83203 155.395 0 160.238 0C165.081 0 169.007 3.83203 169.007 8.55908Z" fill="#FF6645"/>
<path d="M224.25 38.1268V71.3256H217.175V38.1268H224.25Z" fill="#FF6645"/>
<path d="M241.444 71.812C238.864 71.812 236.633 71.277 234.751 70.2071C232.88 69.1264 231.435 67.6243 230.416 65.7006C229.398 63.7662 228.888 61.5238 228.888 58.9733C228.888 56.4013 229.398 54.1535 230.416 52.2298C231.435 50.2954 232.88 48.7932 234.751 47.7233C236.633 46.6426 238.864 46.1023 241.444 46.1023C244.024 46.1023 246.249 46.6426 248.121 47.7233C250.003 48.7932 251.453 50.2954 252.472 52.2298C253.491 54.1535 254 56.4013 254 58.9733C254 61.5238 253.491 63.7662 252.472 65.7006C251.453 67.6243 250.003 69.1264 248.121 70.2071C246.249 71.277 244.024 71.812 241.444 71.812ZM241.477 66.4625C242.651 66.4625 243.631 66.1383 244.417 65.4899C245.203 64.8307 245.796 63.9337 246.194 62.799C246.604 61.6643 246.809 60.3728 246.809 58.9247C246.809 57.4766 246.604 56.1852 246.194 55.0504C245.796 53.9157 245.203 53.0187 244.417 52.3595C243.631 51.7003 242.651 51.3707 241.477 51.3707C240.293 51.3707 239.296 51.7003 238.488 52.3595C237.691 53.0187 237.087 53.9157 236.678 55.0504C236.279 56.1852 236.08 57.4766 236.08 58.9247C236.08 60.3728 236.279 61.6643 236.678 62.799C237.087 63.9337 237.691 64.8307 238.488 65.4899C239.296 66.1383 240.293 66.4625 241.477 66.4625Z" fill="#FF6645"/>
<path fill-rule="evenodd" clip-rule="evenodd" d="M212.853 51.6138V46.4265H207.771V44.7568C207.771 43.9139 207.976 43.2601 208.386 42.7954C208.795 42.3199 209.52 42.0821 210.561 42.0821C210.982 42.0821 211.392 42.12 211.79 42.1956C212.2 42.2712 212.543 42.3523 212.82 42.4388L214.082 37.2514C213.639 37.1218 212.964 36.9759 212.056 36.8138C211.159 36.6517 210.168 36.5706 209.083 36.5706C207.478 36.5706 206.044 36.8678 204.782 37.4622C203.519 38.0566 202.523 38.9481 201.792 40.1369C201.072 41.3256 200.713 42.8224 200.713 44.6272V46.4265H197.109V51.6138H200.713V71.3256H207.771V51.6138H212.853Z" fill="#FF6645"/>
<path fill-rule="evenodd" clip-rule="evenodd" d="M11.7254 67.4676C15.4899 69.6074 19.952 70.6772 25.1116 70.6772L25.178 59.9784C22.8086 59.9784 20.8156 59.33 19.1991 58.0331C17.6047 56.7147 16.3978 54.9208 15.5785 52.6513C14.7813 50.3818 14.3827 47.799 14.3827 44.9027C14.3827 42.0065 14.7813 39.4236 15.5785 37.1542C16.3978 34.8847 17.6047 33.0908 19.1991 31.7723C20.8156 30.4539 22.8086 29.7947 25.178 29.7947C25.4884 29.7947 25.792 29.8062 26.0888 29.8292C26.4999 24.445 26.804 19.2579 25.1116 19.2579C19.952 19.2579 15.4899 20.3386 11.7254 22.5C7.98299 24.6398 5.09316 27.6441 3.05589 31.513C1.01861 35.3602 -2.78334e-05 39.8559 -2.78334e-05 45C-2.78334e-05 50.1009 1.01861 54.5857 3.05589 58.4546C5.09316 62.3019 7.98299 65.3062 11.7254 67.4676Z" fill="black"/>
<path d="M50.2232 45C50.2232 39.8559 49.2046 35.3602 47.1673 31.513C45.8311 28.9754 44.1233 26.8097 42.044 25.016L44.4365 22.6146L30.2042 21.3756L29.6518 30.8232L29.2969 36.8949L32.6441 33.9545L32.8788 33.7484C33.5813 34.7303 34.1589 35.8656 34.6115 37.1542C35.4308 39.4236 35.8405 42.0065 35.8405 44.9027C35.8405 47.799 35.4308 50.3818 34.6115 52.6513C33.8143 54.9208 32.6296 56.7147 31.0574 58.0331C29.4851 59.33 27.5253 59.9784 25.178 59.9784L25.1116 70.6772C30.2712 70.6772 34.7222 69.6074 38.4646 67.4676C42.2291 65.3062 45.1301 62.3019 47.1673 58.4546C49.2046 54.5857 50.2232 50.1009 50.2232 45Z" fill="#FF6645"/>
</svg>